<?xml version="1.0" standalone="no"?><svg xmlns:xlink="http://www.w3.org/1999/xlink" xmlns="http://www.w3.org/2000/svg" viewBox="0 0 1000 199.9936169718915" preserveAspectRatio="xMaxYMax slice"><g transform="scale(0.5802752825940627)"><rect x="0" y="0" width="1723.33" height="344.666" fill="#0f0f0f"/><g transform="translate(22.98,22.98) scale(0.5745) rotate(0)"><path fill-rule="evenodd" clip-rule="evenodd" d="M10 20C15.5228 20 20 15.5228 20 10C20 4.47715 15.5228 0 10 0C4.47715 0 0 4.47715 0 10C0 15.5228 4.47715 20 10 20ZM10 17C13.866 17 17 13.866 17 10C17 6.13401 13.866 3 10 3C6.13401 3 3 6.13401 3 10C3 13.866 6.13401 17 10 17Z" fill="#0d1318"/></g><g transform="translate(80.42,22.98) scale(0.5745) rotate(0)"><path fill-rule="evenodd" clip-rule="evenodd" d="M10 20C15.5228 20 20 15.5228 20 10C20 4.47715 15.5228 0 10 0C4.47715 0 0 4.47715 0 10C0 15.5228 4.47715 20 10 20ZM10 17C13.866 17 17 13.866 17 10C17 6.13401 13.866 3 10 3C6.13401 3 3 6.13401 3 10C3 13.866 6.13401 17 10 17Z" fill="#081c2b"/></g><g transform="translate(137.87,22.98) scale(0.5745) rotate(0)"><path d="M13 0H20V7L7 20H0V13L13 0Z" fill="#1b0e11"/></g><rect x="195.31" y="22.98" width="11.49" height="11.49" fill="#300c14"/><circle cx="258.505" cy="28.725" r="5.745" fill="#200d12"/><path d="M 310.2 34.47 A 11.49 11.49 0 0 1  321.69 22.98 L 310.2 34.47 A 11.49 11.49 0 0 0 321.69 22.98" fill="#022641"/><circle cx="373.385" cy="28.725" r="5.745" fill="#a20227"/><g transform="translate(425.09,22.98) scale(0.5745) rotate(0)"><rect width="2" height="20" fill="#042238"/><rect x="4" width="2" height="20" fill="#042238"/><rect x="8" width="2" height="20" fill="#042238"/><rect x="12" width="2" height="20" fill="#042238"/><rect x="16" width="2" height="20" fill="#042238"/></g><g transform="translate(482.53,22.98) scale(0.5745) rotate(0)"><rect width="2" height="20" fill="#830422"/><rect x="4" width="2" height="20" fill="#830422"/><rect x="8" width="2" height="20" fill="#830422"/><rect x="12" width="2" height="20" fill="#830422"/><rect x="16" width="2" height="20" fill="#830422"/></g><g transform="translate(539.98,22.98) scale(0.5745) rotate(0)"><path fill-rule="evenodd" clip-rule="evenodd" d="M10 20C15.5228 20 20 15.5228 20 10C20 4.47715 15.5228 0 10 0C4.47715 0 0 4.47715 0 10C0 15.5228 4.47715 20 10 20ZM10 17C13.866 17 17 13.866 17 10C17 6.13401 13.866 3 10 3C6.13401 3 3 6.13401 3 10C3 13.866 6.13401 17 10 17Z" fill="#061f33"/></g><g transform="translate(597.42,22.98) scale(0.5745) rotate(0)"><path fill-rule="evenodd" clip-rule="evenodd" d="M10 20C15.5228 20 20 15.5228 20 10C20 4.47715 15.5228 0 10 0C4.47715 0 0 4.47715 0 10C0 15.5228 4.47715 20 10 20ZM10 17C13.866 17 17 13.866 17 10C17 6.13401 13.866 3 10 3C6.13401 3 3 6.13401 3 10C3 13.866 6.13401 17 10 17Z" fill="#5c081c"/></g><polygon points="654.87,22.98 666.36,34.47 654.87,34.47" fill="#72061f"/><rect x="712.31" y="22.98" width="11.49" height="11.49" fill="#930325"/><circle cx="775.495" cy="28.725" r="5.745" fill="#042239"/><rect x="827.2" y="22.98" width="11.49" height="11.49" fill="#091b28"/><polygon points="884.64,22.98 896.13,22.98 896.13,34.47" fill="#8f0324"/><g transform="translate(942.09,22.98) scale(0.5745) rotate(0)"><path fill-rule="evenodd" clip-rule="evenodd" d="M10 20C15.5228 20 20 15.5228 20 10C20 4.47715 15.5228 0 10 0C4.47715 0 0 4.47715 0 10C0 15.5228 4.47715 20 10 20ZM10 17C13.866 17 17 13.866 17 10C17 6.13401 13.866 3 10 3C6.13401 3 3 6.13401 3 10C3 13.866 6.13401 17 10 17Z" fill="#022540"/></g><rect x="999.53" y="22.98" width="11.49" height="11.49" fill="#310c15"/><g transform="translate(1056.98,22.98) scale(0.5745) rotate(0)"><rect width="2" height="20" fill="#140f10"/><rect x="4" width="2" height="20" fill="#140f10"/><rect x="8" width="2" height="20" fill="#140f10"/><rect x="12" width="2" height="20" fill="#140f10"/><rect x="16" width="2" height="20" fill="#140f10"/></g><polygon points="1114.42,22.98 1125.91,22.98 1114.42,34.47" fill="#0e1114"/><rect x="1171.86" y="22.98" width="11.49" height="11.49" fill="#a10227"/><g transform="translate(1229.31,22.98) scale(0.5745) rotate(0)"><path fill-rule="evenodd" clip-rule="evenodd" d="M10 20C15.5228 20 20 15.5228 20 10C20 4.47715 15.5228 0 10 0C4.47715 0 0 4.47715 0 10C0 15.5228 4.47715 20 10 20ZM10 17C13.866 17 17 13.866 17 10C17 6.13401 13.866 3 10 3C6.13401 3 3 6.13401 3 10C3 13.866 6.13401 17 10 17Z" fill="#8a0423"/></g><path d="M 1286.75 22.98 A 11.49 11.49 0 0 1  1298.24 34.47 L 1286.75 22.98 A 11.49 11.49 0 0 0 1298.24 34.47" fill="#5a081b"/><g transform="translate(1344.2,22.98) scale(0.5745) rotate(0)"><rect width="2" height="20" fill="#0d1216"/><rect x="4" width="2" height="20" fill="#0d1216"/><rect x="8" width="2" height="20" fill="#0d1216"/><rect x="12" width="2" height="20" fill="#0d1216"/><rect x="16" width="2" height="20" fill="#0d1216"/></g><g transform="translate(1401.64,22.98) scale(0.5745) rotate(0)"><rect width="2" height="20" fill="#022641"/><rect x="4" width="2" height="20" fill="#022641"/><rect x="8" width="2" height="20" fill="#022641"/><rect x="12" width="2" height="20" fill="#022641"/><rect x="16" width="2" height="20" fill="#022641"/></g><rect x="1459.09" y="22.98" width="11.49" height="11.49" fill="#7a0521"/><g transform="translate(1516.53,22.98) scale(0.5745) rotate(0)"><path fill-rule="evenodd" clip-rule="evenodd" d="M10 20C15.5228 20 20 15.5228 20 10C20 4.47715 15.5228 0 10 0C4.47715 0 0 4.47715 0 10C0 15.5228 4.47715 20 10 20ZM10 17C13.866 17 17 13.866 17 10C17 6.13401 13.866 3 10 3C6.13401 3 3 6.13401 3 10C3 13.866 6.13401 17 10 17Z" fill="#062034"/></g><rect x="1573.97" y="22.98" width="11.49" height="11.49" fill="#4b0919"/><g transform="translate(1631.42,22.98) scale(0.5745) rotate(0)"><path d="M13 0H20V7L7 20H0V13L13 0Z" fill="#60081c"/></g><path d="M 1688.86 22.98 A 11.49 11.49 0 0 1  1700.35 34.47 L 1688.86 22.98 A 11.49 11.49 0 0 0 1700.35 34.47" fill="#081c2c"/><g transform="translate(18.38,75.83) scale(1.034) rotate(0)"><rect width="2" height="20" fill="#250d13"/><rect x="4" width="2" height="20" fill="#250d13"/><rect x="8" width="2" height="20" fill="#250d13"/><rect x="12" width="2" height="20" fill="#250d13"/><rect x="16" width="2" height="20" fill="#250d13"/></g><g transform="translate(75.83,75.83) scale(1.034) rotate(0)"><path d="M13 0H20V7L7 20H0V13L13 0Z" fill="#022743"/></g><g transform="translate(133.27,75.83) scale(1.034) rotate(0)"><path d="M13 0H20V7L7 20H0V13L13 0Z" fill="#071c2d"/></g><rect x="190.72" y="75.83" width="20.68" height="20.68" fill="#052136"/><g transform="translate(248.16,75.83) scale(1.034) rotate(0)"><path fill-rule="evenodd" clip-rule="evenodd" d="M10 20C15.5228 20 20 15.5228 20 10C20 4.47715 15.5228 0 10 0C4.47715 0 0 4.47715 0 10C0 15.5228 4.47715 20 10 20ZM10 17C13.866 17 17 13.866 17 10C17 6.13401 13.866 3 10 3C6.13401 3 3 6.13401 3 10C3 13.866 6.13401 17 10 17Z" fill="#63071d"/></g><circle cx="315.94" cy="86.17" r="10.34" fill="#012744"/><g transform="translate(363.05,75.83) scale(1.034) rotate(0)"><path d="M13 0H20V7L7 20H0V13L13 0Z" fill="#ae0029"/></g><g transform="translate(420.49,75.83) scale(1.034) rotate(0)"><path d="M13 0H20V7L7 20H0V13L13 0Z" fill="#0d1317"/></g><g transform="translate(477.94,75.83) scale(1.034) rotate(0)"><rect width="2" height="20" fill="#790521"/><rect x="4" width="2" height="20" fill="#790521"/><rect x="8" width="2" height="20" fill="#790521"/><rect x="12" width="2" height="20" fill="#790521"/><rect x="16" width="2" height="20" fill="#790521"/></g><polygon points="535.38,75.83 556.06,75.83 535.38,96.50999999999999" fill="#022643"/><g transform="translate(592.83,75.83) scale(1.034) rotate(0)"><path d="M13 0H20V7L7 20H0V13L13 0Z" fill="#061e31"/></g><path d="M 650.27 96.50999999999999 A 20.68 20.68 0 0 1  670.9499999999999 75.83 L 650.27 96.50999999999999 A 20.68 20.68 0 0 0 670.9499999999999 75.83" fill="#0c141b"/><rect x="707.71" y="75.83" width="20.68" height="20.68" fill="#03243e"/><rect x="765.16" y="75.83" width="20.68" height="20.68" fill="#052136"/><g transform="translate(822.6,75.83) scale(1.034) rotate(0)"><path fill-rule="evenodd" clip-rule="evenodd" d="M10 20C15.5228 20 20 15.5228 20 10C20 4.47715 15.5228 0 10 0C4.47715 0 0 4.47715 0 10C0 15.5228 4.47715 20 10 20ZM10 17C13.866 17 17 13.866 17 10C17 6.13401 13.866 3 10 3C6.13401 3 3 6.13401 3 10C3 13.866 6.13401 17 10 17Z" fill="#920325"/></g><g transform="translate(880.05,75.83) scale(1.034) rotate(0)"><rect width="2" height="20" fill="#081c2b"/><rect x="4" width="2" height="20" fill="#081c2b"/><rect x="8" width="2" height="20" fill="#081c2b"/><rect x="12" width="2" height="20" fill="#081c2b"/><rect x="16" width="2" height="20" fill="#081c2b"/></g><circle cx="947.83" cy="86.17" r="10.34" fill="#081b2a"/><g transform="translate(994.94,75.83) scale(1.034) rotate(0)"><path fill-rule="evenodd" clip-rule="evenodd" d="M10 20C15.5228 20 20 15.5228 20 10C20 4.47715 15.5228 0 10 0C4.47715 0 0 4.47715 0 10C0 15.5228 4.47715 20 10 20ZM10 17C13.866 17 17 13.866 17 10C17 6.13401 13.866 3 10 3C6.13401 3 3 6.13401 3 10C3 13.866 6.13401 17 10 17Z" fill="#960325"/></g><rect x="1052.38" y="75.83" width="20.68" height="20.68" fill="#400b17"/><g transform="translate(1109.82,75.83) scale(1.034) rotate(0)"><path d="M13 0H20V7L7 20H0V13L13 0Z" fill="#860423"/></g><rect x="1167.27" y="75.83" width="20.68" height="20.68" fill="#022641"/><g transform="translate(1224.71,75.83) scale(1.034) rotate(0)"><path fill-rule="evenodd" clip-rule="evenodd" d="M10 20C15.5228 20 20 15.5228 20 10C20 4.47715 15.5228 0 10 0C4.47715 0 0 4.47715 0 10C0 15.5228 4.47715 20 10 20ZM10 17C13.866 17 17 13.866 17 10C17 6.13401 13.866 3 10 3C6.13401 3 3 6.13401 3 10C3 13.866 6.13401 17 10 17Z" fill="#0a1823"/></g><g transform="translate(1282.16,75.83) scale(1.034) rotate(0)"><rect width="2" height="20" fill="#62071d"/><rect x="4" width="2" height="20" fill="#62071d"/><rect x="8" width="2" height="20" fill="#62071d"/><rect x="12" width="2" height="20" fill="#62071d"/><rect x="16" width="2" height="20" fill="#62071d"/></g><polygon points="1339.6,75.83 1360.28,75.83 1339.6,96.50999999999999" fill="#061f32"/><g transform="translate(1397.05,75.83) scale(1.034) rotate(0)"><rect width="2" height="20" fill="#420a17"/><rect x="4" width="2" height="20" fill="#420a17"/><rect x="8" width="2" height="20" fill="#420a17"/><rect x="12" width="2" height="20" fill="#420a17"/><rect x="16" width="2" height="20" fill="#420a17"/></g><rect x="1454.49" y="75.83" width="20.68" height="20.68" fill="#0c151c"/><g transform="translate(1511.93,75.83) scale(1.034) rotate(0)"><path d="M13 0H20V7L7 20H0V13L13 0Z" fill="#6f061f"/></g><g transform="translate(1569.38,75.83) scale(1.034) rotate(0)"><path d="M13 0H20V7L7 20H0V13L13 0Z" fill="#2f0c14"/></g><g transform="translate(1626.82,75.83) scale(1.034) rotate(0)"><rect width="2" height="20" fill="#081b2a"/><rect x="4" width="2" height="20" fill="#081b2a"/><rect x="8" width="2" height="20" fill="#081b2a"/><rect x="12" width="2" height="20" fill="#081b2a"/><rect x="16" width="2" height="20" fill="#081b2a"/></g><g transform="translate(1684.27,75.83) scale(1.034) rotate(0)"><rect width="2" height="20" fill="#5c081c"/><rect x="4" width="2" height="20" fill="#5c081c"/><rect x="8" width="2" height="20" fill="#5c081c"/><rect x="12" width="2" height="20" fill="#5c081c"/><rect x="16" width="2" height="20" fill="#5c081c"/></g><rect x="13.79" y="128.68" width="29.87" height="29.87" fill="#5f081c"/><path d="M 71.23 158.55 A 29.87 29.87 0 0 1  101.10000000000001 128.68 L 71.23 158.55 A 29.87 29.87 0 0 0 101.10000000000001 128.68" fill="#071e30"/><g transform="translate(128.68,128.68) scale(1.4935) rotate(0)"><path d="M13 0H20V7L7 20H0V13L13 0Z" fill="#061f32"/></g><g transform="translate(186.12,128.68) scale(1.4935) rotate(0)"><path fill-rule="evenodd" clip-rule="evenodd" d="M10 20C15.5228 20 20 15.5228 20 10C20 4.47715 15.5228 0 10 0C4.47715 0 0 4.47715 0 10C0 15.5228 4.47715 20 10 20ZM10 17C13.866 17 17 13.866 17 10C17 6.13401 13.866 3 10 3C6.13401 3 3 6.13401 3 10C3 13.866 6.13401 17 10 17Z" fill="#66071d"/></g><g transform="translate(243.56,128.68) scale(1.4935) rotate(0)"><rect width="2" height="20" fill="#052034"/><rect x="4" width="2" height="20" fill="#052034"/><rect x="8" width="2" height="20" fill="#052034"/><rect x="12" width="2" height="20" fill="#052034"/><rect x="16" width="2" height="20" fill="#052034"/></g><g transform="translate(301.01,128.68) scale(1.4935) rotate(0)"><rect width="2" height="20" fill="#310c15"/><rect x="4" width="2" height="20" fill="#310c15"/><rect x="8" width="2" height="20" fill="#310c15"/><rect x="12" width="2" height="20" fill="#310c15"/><rect x="16" width="2" height="20" fill="#310c15"/></g><path d="M 358.45 158.55 A 29.87 29.87 0 0 1  388.32 128.68 L 358.45 158.55 A 29.87 29.87 0 0 0 388.32 128.68" fill="#061f33"/><circle cx="430.835" cy="143.615" r="14.935" fill="#400a17"/><rect x="473.34" y="128.68" width="29.87" height="29.87" fill="#071e30"/><rect x="530.79" y="128.68" width="29.87" height="29.87" fill="#0c141b"/><path d="M 588.23 158.55 A 29.87 29.87 0 0 1  618.1 128.68 L 588.23 158.55 A 29.87 29.87 0 0 0 618.1 128.68" fill="#0a1823"/><g transform="translate(645.67,128.68) scale(1.4935) rotate(0)"><rect width="2" height="20" fill="#340c15"/><rect x="4" width="2" height="20" fill="#340c15"/><rect x="8" width="2" height="20" fill="#340c15"/><rect x="12" width="2" height="20" fill="#340c15"/><rect x="16" width="2" height="20" fill="#340c15"/></g><g transform="translate(703.12,128.68) scale(1.4935) rotate(0)"><path d="M13 0H20V7L7 20H0V13L13 0Z" fill="#022743"/></g><rect x="760.56" y="128.68" width="29.87" height="29.87" fill="#250d13"/><polygon points="847.88,128.68 847.88,158.55 818.01,158.55" fill="#2b0c14"/><rect x="875.45" y="128.68" width="29.87" height="29.87" fill="#8f0324"/><g transform="translate(932.9,128.68) scale(1.4935) rotate(0)"><path fill-rule="evenodd" clip-rule="evenodd" d="M10 20C15.5228 20 20 15.5228 20 10C20 4.47715 15.5228 0 10 0C4.47715 0 0 4.47715 0 10C0 15.5228 4.47715 20 10 20ZM10 17C13.866 17 17 13.866 17 10C17 6.13401 13.866 3 10 3C6.13401 3 3 6.13401 3 10C3 13.866 6.13401 17 10 17Z" fill="#940325"/></g><path d="M 990.34 128.68 A 29.87 29.87 0 0 1  1020.21 158.55 L 990.34 128.68 A 29.87 29.87 0 0 0 1020.21 158.55" fill="#0f1011"/><g transform="translate(1047.78,128.68) scale(1.4935) rotate(0)"><path d="M13 0H20V7L7 20H0V13L13 0Z" fill="#9f0227"/></g><g transform="translate(1105.23,128.68) scale(1.4935) rotate(0)"><rect width="2" height="20" fill="#081c2b"/><rect x="4" width="2" height="20" fill="#081c2b"/><rect x="8" width="2" height="20" fill="#081c2b"/><rect x="12" width="2" height="20" fill="#081c2b"/><rect x="16" width="2" height="20" fill="#081c2b"/></g><g transform="translate(1162.67,128.68) scale(1.4935) rotate(0)"><path fill-rule="evenodd" clip-rule="evenodd" d="M10 20C15.5228 20 20 15.5228 20 10C20 4.47715 15.5228 0 10 0C4.47715 0 0 4.47715 0 10C0 15.5228 4.47715 20 10 20ZM10 17C13.866 17 17 13.866 17 10C17 6.13401 13.866 3 10 3C6.13401 3 3 6.13401 3 10C3 13.866 6.13401 17 10 17Z" fill="#490a19"/></g><polygon points="1249.9899999999998,128.68 1249.9899999999998,158.55 1220.12,158.55" fill="#03243d"/><g transform="translate(1277.56,128.68) scale(1.4935) rotate(0)"><rect width="2" height="20" fill="#052138"/><rect x="4" width="2" height="20" fill="#052138"/><rect x="8" width="2" height="20" fill="#052138"/><rect x="12" width="2" height="20" fill="#052138"/><rect x="16" width="2" height="20" fill="#052138"/></g><polygon points="1335.01,128.68 1364.8799999999999,158.55 1335.01,158.55" fill="#6e061f"/><g transform="translate(1392.45,128.68) scale(1.4935) rotate(0)"><rect width="2" height="20" fill="#071d2d"/><rect x="4" width="2" height="20" fill="#071d2d"/><rect x="8" width="2" height="20" fill="#071d2d"/><rect x="12" width="2" height="20" fill="#071d2d"/><rect x="16" width="2" height="20" fill="#071d2d"/></g><g transform="translate(1449.89,128.68) scale(1.4935) rotate(0)"><path fill-rule="evenodd" clip-rule="evenodd" d="M10 20C15.5228 20 20 15.5228 20 10C20 4.47715 15.5228 0 10 0C4.47715 0 0 4.47715 0 10C0 15.5228 4.47715 20 10 20ZM10 17C13.866 17 17 13.866 17 10C17 6.13401 13.866 3 10 3C6.13401 3 3 6.13401 3 10C3 13.866 6.13401 17 10 17Z" fill="#052035"/></g><path d="M 1507.34 128.68 A 29.87 29.87 0 0 1  1537.2099999999998 158.55 L 1507.34 128.68 A 29.87 29.87 0 0 0 1537.2099999999998 158.55" fill="#03253f"/><g transform="translate(1564.78,128.68) scale(1.4935) rotate(0)"><path d="M13 0H20V7L7 20H0V13L13 0Z" fill="#8d0324"/></g><g transform="translate(1622.23,128.68) scale(1.4935) rotate(0)"><path fill-rule="evenodd" clip-rule="evenodd" d="M10 20C15.5228 20 20 15.5228 20 10C20 4.47715 15.5228 0 10 0C4.47715 0 0 4.47715 0 10C0 15.5228 4.47715 20 10 20ZM10 17C13.866 17 17 13.866 17 10C17 6.13401 13.866 3 10 3C6.13401 3 3 6.13401 3 10C3 13.866 6.13401 17 10 17Z" fill="#260d13"/></g><rect x="1679.67" y="128.68" width="29.87" height="29.87" fill="#950325"/><rect x="9.19" y="181.52" width="39.06" height="39.06" fill="#0d1319"/><rect x="66.64" y="181.52" width="39.06" height="39.06" fill="#250d13"/><g transform="translate(124.08,181.52) scale(1.953) rotate(0)"><path d="M13 0H20V7L7 20H0V13L13 0Z" fill="#880423"/></g><polygon points="181.52,181.52 220.58,181.52 220.58,220.58" fill="#071e2f"/><g transform="translate(238.97,181.52) scale(1.953) rotate(0)"><path fill-rule="evenodd" clip-rule="evenodd" d="M10 20C15.5228 20 20 15.5228 20 10C20 4.47715 15.5228 0 10 0C4.47715 0 0 4.47715 0 10C0 15.5228 4.47715 20 10 20ZM10 17C13.866 17 17 13.866 17 10C17 6.13401 13.866 3 10 3C6.13401 3 3 6.13401 3 10C3 13.866 6.13401 17 10 17Z" fill="#770520"/></g><g transform="translate(296.41,181.52) scale(1.953) rotate(0)"><rect width="2" height="20" fill="#0d1318"/><rect x="4" width="2" height="20" fill="#0d1318"/><rect x="8" width="2" height="20" fill="#0d1318"/><rect x="12" width="2" height="20" fill="#0d1318"/><rect x="16" width="2" height="20" fill="#0d1318"/></g><g transform="translate(353.86,181.52) scale(1.953) rotate(0)"><path fill-rule="evenodd" clip-rule="evenodd" d="M10 20C15.5228 20 20 15.5228 20 10C20 4.47715 15.5228 0 10 0C4.47715 0 0 4.47715 0 10C0 15.5228 4.47715 20 10 20ZM10 17C13.866 17 17 13.866 17 10C17 6.13401 13.866 3 10 3C6.13401 3 3 6.13401 3 10C3 13.866 6.13401 17 10 17Z" fill="#03243d"/></g><g transform="translate(411.3,181.52) scale(1.953) rotate(0)"><path fill-rule="evenodd" clip-rule="evenodd" d="M10 20C15.5228 20 20 15.5228 20 10C20 4.47715 15.5228 0 10 0C4.47715 0 0 4.47715 0 10C0 15.5228 4.47715 20 10 20ZM10 17C13.866 17 17 13.866 17 10C17 6.13401 13.866 3 10 3C6.13401 3 3 6.13401 3 10C3 13.866 6.13401 17 10 17Z" fill="#130f10"/></g><g transform="translate(468.75,181.52) scale(1.953) rotate(0)"><path fill-rule="evenodd" clip-rule="evenodd" d="M10 20C15.5228 20 20 15.5228 20 10C20 4.47715 15.5228 0 10 0C4.47715 0 0 4.47715 0 10C0 15.5228 4.47715 20 10 20ZM10 17C13.866 17 17 13.866 17 10C17 6.13401 13.866 3 10 3C6.13401 3 3 6.13401 3 10C3 13.866 6.13401 17 10 17Z" fill="#0d1317"/></g><rect x="526.19" y="181.52" width="39.06" height="39.06" fill="#061f32"/><g transform="translate(583.63,181.52) scale(1.953) rotate(0)"><path fill-rule="evenodd" clip-rule="evenodd" d="M10 20C15.5228 20 20 15.5228 20 10C20 4.47715 15.5228 0 10 0C4.47715 0 0 4.47715 0 10C0 15.5228 4.47715 20 10 20ZM10 17C13.866 17 17 13.866 17 10C17 6.13401 13.866 3 10 3C6.13401 3 3 6.13401 3 10C3 13.866 6.13401 17 10 17Z" fill="#0b161f"/></g><circle cx="660.61" cy="201.05" r="19.53" fill="#63071d"/><path d="M 698.52 220.58 A 39.06 39.06 0 0 1  737.5799999999999 181.52 L 698.52 220.58 A 39.06 39.06 0 0 0 737.5799999999999 181.52" fill="#0c1419"/><path d="M 755.97 181.52 A 39.06 39.06 0 0 1  795.03 220.58 L 755.97 181.52 A 39.06 39.06 0 0 0 795.03 220.58" fill="#0e1114"/><path d="M 813.41 181.52 A 39.06 39.06 0 0 1  852.47 220.58 L 813.41 181.52 A 39.06 39.06 0 0 0 852.47 220.58" fill="#0e1113"/><circle cx="890.39" cy="201.05" r="19.53" fill="#042239"/><polygon points="928.3,181.52 967.3599999999999,181.52 967.3599999999999,220.58" fill="#5a081b"/><polygon points="985.74,181.52 1024.8,181.52 1024.8,220.58" fill="#0e1114"/><polygon points="1082.25,181.52 1082.25,220.58 1043.19,220.58" fill="#810522"/><g transform="translate(1100.63,181.52) scale(1.953) rotate(0)"><rect width="2" height="20" fill="#1c0e11"/><rect x="4" width="2" height="20" fill="#1c0e11"/><rect x="8" width="2" height="20" fill="#1c0e11"/><rect x="12" width="2" height="20" fill="#1c0e11"/><rect x="16" width="2" height="20" fill="#1c0e11"/></g><circle cx="1177.61" cy="201.05" r="19.53" fill="#0e1113"/><path d="M 1215.52 220.58 A 39.06 39.06 0 0 1  1254.58 181.52 L 1215.52 220.58 A 39.06 39.06 0 0 0 1254.58 181.52" fill="#022641"/><path d="M 1272.97 220.58 A 39.06 39.06 0 0 1  1312.03 181.52 L 1272.97 220.58 A 39.06 39.06 0 0 0 1312.03 181.52" fill="#68071e"/><circle cx="1349.94" cy="201.05" r="19.53" fill="#0f0f10"/><rect x="1387.86" y="181.52" width="39.06" height="39.06" fill="#6c071e"/><g transform="translate(1445.3,181.52) scale(1.953) rotate(0)"><path d="M13 0H20V7L7 20H0V13L13 0Z" fill="#081c2b"/></g><polygon points="1502.74,181.52 1541.8,181.52 1502.74,220.58" fill="#0d1215"/><g transform="translate(1560.19,181.52) scale(1.953) rotate(0)"><path fill-rule="evenodd" clip-rule="evenodd" d="M10 20C15.5228 20 20 15.5228 20 10C20 4.47715 15.5228 0 10 0C4.47715 0 0 4.47715 0 10C0 15.5228 4.47715 20 10 20ZM10 17C13.866 17 17 13.866 17 10C17 6.13401 13.866 3 10 3C6.13401 3 3 6.13401 3 10C3 13.866 6.13401 17 10 17Z" fill="#0f1011"/></g><path d="M 1617.63 181.52 A 39.06 39.06 0 0 1  1656.69 220.58 L 1617.63 181.52 A 39.06 39.06 0 0 0 1656.69 220.58" fill="#052137"/><g transform="translate(1675.08,181.52) scale(1.953) rotate(0)"><path d="M13 0H20V7L7 20H0V13L13 0Z" fill="#840422"/></g><path d="M 4.6 282.62 A 48.25 48.25 0 0 1  52.85 234.37 L 4.6 282.62 A 48.25 48.25 0 0 0 52.85 234.37" fill="#0d1318"/><circle cx="86.16499999999999" cy="258.495" r="24.125" fill="#081c2c"/><g transform="translate(119.48,234.37) scale(2.4125) rotate(0)"><path d="M13 0H20V7L7 20H0V13L13 0Z" fill="#012745"/></g><circle cx="201.055" cy="258.495" r="24.125" fill="#032540"/><path d="M 234.37 282.62 A 48.25 48.25 0 0 1  282.62 234.37 L 234.37 282.62 A 48.25 48.25 0 0 0 282.62 234.37" fill="#900324"/><g transform="translate(291.82,234.37) scale(2.4125) rotate(0)"><rect width="2" height="20" fill="#0c151d"/><rect x="4" width="2" height="20" fill="#0c151d"/><rect x="8" width="2" height="20" fill="#0c151d"/><rect x="12" width="2" height="20" fill="#0c151d"/><rect x="16" width="2" height="20" fill="#0c151d"/></g><g transform="translate(349.26,234.37) scale(2.4125) rotate(0)"><rect width="2" height="20" fill="#061e30"/><rect x="4" width="2" height="20" fill="#061e30"/><rect x="8" width="2" height="20" fill="#061e30"/><rect x="12" width="2" height="20" fill="#061e30"/><rect x="16" width="2" height="20" fill="#061e30"/></g><circle cx="430.835" cy="258.495" r="24.125" fill="#470a18"/><g transform="translate(464.15,234.37) scale(2.4125) rotate(0)"><path fill-rule="evenodd" clip-rule="evenodd" d="M10 20C15.5228 20 20 15.5228 20 10C20 4.47715 15.5228 0 10 0C4.47715 0 0 4.47715 0 10C0 15.5228 4.47715 20 10 20ZM10 17C13.866 17 17 13.866 17 10C17 6.13401 13.866 3 10 3C6.13401 3 3 6.13401 3 10C3 13.866 6.13401 17 10 17Z" fill="#0b161e"/></g><circle cx="545.715" cy="258.495" r="24.125" fill="#0a1822"/><rect x="579.04" y="234.37" width="48.25" height="48.25" fill="#3e0b17"/><path d="M 636.48 234.37 A 48.25 48.25 0 0 1  684.73 282.62 L 636.48 234.37 A 48.25 48.25 0 0 0 684.73 282.62" fill="#062034"/><g transform="translate(693.93,234.37) scale(2.4125) rotate(0)"><path fill-rule="evenodd" clip-rule="evenodd" d="M10 20C15.5228 20 20 15.5228 20 10C20 4.47715 15.5228 0 10 0C4.47715 0 0 4.47715 0 10C0 15.5228 4.47715 20 10 20ZM10 17C13.866 17 17 13.866 17 10C17 6.13401 13.866 3 10 3C6.13401 3 3 6.13401 3 10C3 13.866 6.13401 17 10 17Z" fill="#061e30"/></g><rect x="751.37" y="234.37" width="48.25" height="48.25" fill="#012845"/><polygon points="808.82,234.37 857.07,282.62 808.82,282.62" fill="#7e0521"/><circle cx="890.385" cy="258.495" r="24.125" fill="#400b17"/><rect x="923.7" y="234.37" width="48.25" height="48.25" fill="#052137"/><circle cx="1005.275" cy="258.495" r="24.125" fill="#62071d"/><g transform="translate(1038.59,234.37) scale(2.4125) rotate(0)"><rect width="2" height="20" fill="#0f0f0f"/><rect x="4" width="2" height="20" fill="#0f0f0f"/><rect x="8" width="2" height="20" fill="#0f0f0f"/><rect x="12" width="2" height="20" fill="#0f0f0f"/><rect x="16" width="2" height="20" fill="#0f0f0f"/></g><polygon points="1096.04,234.37 1144.29,234.37 1144.29,282.62" fill="#7a0521"/><g transform="translate(1153.48,234.37) scale(2.4125) rotate(0)"><rect width="2" height="20" fill="#022641"/><rect x="4" width="2" height="20" fill="#022641"/><rect x="8" width="2" height="20" fill="#022641"/><rect x="12" width="2" height="20" fill="#022641"/><rect x="16" width="2" height="20" fill="#022641"/></g><rect x="1210.93" y="234.37" width="48.25" height="48.25" fill="#2f0c14"/><path d="M 1268.37 234.37 A 48.25 48.25 0 0 1  1316.62 282.62 L 1268.37 234.37 A 48.25 48.25 0 0 0 1316.62 282.62" fill="#8a0423"/><path d="M 1325.82 282.62 A 48.25 48.25 0 0 1  1374.07 234.37 L 1325.82 282.62 A 48.25 48.25 0 0 0 1374.07 234.37" fill="#67071e"/><circle cx="1407.385" cy="258.495" r="24.125" fill="#2d0c14"/><g transform="translate(1440.7,234.37) scale(2.4125) rotate(0)"><rect width="2" height="20" fill="#3b0b16"/><rect x="4" width="2" height="20" fill="#3b0b16"/><rect x="8" width="2" height="20" fill="#3b0b16"/><rect x="12" width="2" height="20" fill="#3b0b16"/><rect x="16" width="2" height="20" fill="#3b0b16"/></g><g transform="translate(1498.15,234.37) scale(2.4125) rotate(0)"><path fill-rule="evenodd" clip-rule="evenodd" d="M10 20C15.5228 20 20 15.5228 20 10C20 4.47715 15.5228 0 10 0C4.47715 0 0 4.47715 0 10C0 15.5228 4.47715 20 10 20ZM10 17C13.866 17 17 13.866 17 10C17 6.13401 13.866 3 10 3C6.13401 3 3 6.13401 3 10C3 13.866 6.13401 17 10 17Z" fill="#ab0129"/></g><g transform="translate(1555.59,234.37) scale(2.4125) rotate(0)"><path d="M13 0H20V7L7 20H0V13L13 0Z" fill="#04233c"/></g><g transform="translate(1613.04,234.37) scale(2.4125) rotate(0)"><rect width="2" height="20" fill="#ac0129"/><rect x="4" width="2" height="20" fill="#ac0129"/><rect x="8" width="2" height="20" fill="#ac0129"/><rect x="12" width="2" height="20" fill="#ac0129"/><rect x="16" width="2" height="20" fill="#ac0129"/></g><path d="M 1670.48 282.62 A 48.25 48.25 0 0 1  1718.73 234.37 L 1670.48 282.62 A 48.25 48.25 0 0 0 1718.73 234.37" fill="#280d13"/><polygon points="0,287.22 57.44,287.22 0,344.66" fill="#150e10"/><g transform="translate(57.44,287.22) scale(2.872) rotate(0)"><rect width="2" height="20" fill="#03253f"/><rect x="4" width="2" height="20" fill="#03253f"/><rect x="8" width="2" height="20" fill="#03253f"/><rect x="12" width="2" height="20" fill="#03253f"/><rect x="16" width="2" height="20" fill="#03253f"/></g><rect x="114.89" y="287.22" width="57.44" height="57.44" fill="#59081b"/><polygon points="172.33,287.22 229.77,287.22 172.33,344.66" fill="#061e31"/><g transform="translate(229.78,287.22) scale(2.872) rotate(0)"><rect width="2" height="20" fill="#0d1318"/><rect x="4" width="2" height="20" fill="#0d1318"/><rect x="8" width="2" height="20" fill="#0d1318"/><rect x="12" width="2" height="20" fill="#0d1318"/><rect x="16" width="2" height="20" fill="#0d1318"/></g><g transform="translate(287.22,287.22) scale(2.872) rotate(0)"><rect width="2" height="20" fill="#270d13"/><rect x="4" width="2" height="20" fill="#270d13"/><rect x="8" width="2" height="20" fill="#270d13"/><rect x="12" width="2" height="20" fill="#270d13"/><rect x="16" width="2" height="20" fill="#270d13"/></g><g transform="translate(344.67,287.22) scale(2.872) rotate(0)"><rect width="2" height="20" fill="#012846"/><rect x="4" width="2" height="20" fill="#012846"/><rect x="8" width="2" height="20" fill="#012846"/><rect x="12" width="2" height="20" fill="#012846"/><rect x="16" width="2" height="20" fill="#012846"/></g><circle cx="430.83000000000004" cy="315.94000000000005" r="28.72" fill="#0c151b"/><path d="M 459.55 287.22 A 57.44 57.44 0 0 1  516.99 344.66 L 459.55 287.22 A 57.44 57.44 0 0 0 516.99 344.66" fill="#70061f"/><polygon points="517,287.22 574.44,344.66 517,344.66" fill="#0e1011"/><g transform="translate(574.44,287.22) scale(2.872) rotate(0)"><path fill-rule="evenodd" clip-rule="evenodd" d="M10 20C15.5228 20 20 15.5228 20 10C20 4.47715 15.5228 0 10 0C4.47715 0 0 4.47715 0 10C0 15.5228 4.47715 20 10 20ZM10 17C13.866 17 17 13.866 17 10C17 6.13401 13.866 3 10 3C6.13401 3 3 6.13401 3 10C3 13.866 6.13401 17 10 17Z" fill="#0f1010"/></g><g transform="translate(631.89,287.22) scale(2.872) rotate(0)"><path fill-rule="evenodd" clip-rule="evenodd" d="M10 20C15.5228 20 20 15.5228 20 10C20 4.47715 15.5228 0 10 0C4.47715 0 0 4.47715 0 10C0 15.5228 4.47715 20 10 20ZM10 17C13.866 17 17 13.866 17 10C17 6.13401 13.866 3 10 3C6.13401 3 3 6.13401 3 10C3 13.866 6.13401 17 10 17Z" fill="#800522"/></g><g transform="translate(689.33,287.22) scale(2.872) rotate(0)"><path d="M13 0H20V7L7 20H0V13L13 0Z" fill="#081b29"/></g><g transform="translate(746.78,287.22) scale(2.872) rotate(0)"><rect width="2" height="20" fill="#0b161f"/><rect x="4" width="2" height="20" fill="#0b161f"/><rect x="8" width="2" height="20" fill="#0b161f"/><rect x="12" width="2" height="20" fill="#0b161f"/><rect x="16" width="2" height="20" fill="#0b161f"/></g><g transform="translate(804.22,287.22) scale(2.872) rotate(0)"><path d="M13 0H20V7L7 20H0V13L13 0Z" fill="#061f32"/></g><circle cx="890.39" cy="315.94000000000005" r="28.72" fill="#120f0f"/><path d="M 919.11 344.66 A 57.44 57.44 0 0 1  976.55 287.22 L 919.11 344.66 A 57.44 57.44 0 0 0 976.55 287.22" fill="#0a1823"/><g transform="translate(976.55,287.22) scale(2.872) rotate(0)"><path fill-rule="evenodd" clip-rule="evenodd" d="M10 20C15.5228 20 20 15.5228 20 10C20 4.47715 15.5228 0 10 0C4.47715 0 0 4.47715 0 10C0 15.5228 4.47715 20 10 20ZM10 17C13.866 17 17 13.866 17 10C17 6.13401 13.866 3 10 3C6.13401 3 3 6.13401 3 10C3 13.866 6.13401 17 10 17Z" fill="#730620"/></g><path d="M 1034 344.66 A 57.44 57.44 0 0 1  1091.44 287.22 L 1034 344.66 A 57.44 57.44 0 0 0 1091.44 287.22" fill="#052035"/><g transform="translate(1091.44,287.22) scale(2.872) rotate(0)"><rect width="2" height="20" fill="#410a17"/><rect x="4" width="2" height="20" fill="#410a17"/><rect x="8" width="2" height="20" fill="#410a17"/><rect x="12" width="2" height="20" fill="#410a17"/><rect x="16" width="2" height="20" fill="#410a17"/></g><g transform="translate(1148.89,287.22) scale(2.872) rotate(0)"><path d="M13 0H20V7L7 20H0V13L13 0Z" fill="#052137"/></g><rect x="1206.33" y="287.22" width="57.44" height="57.44" fill="#7a0521"/><path d="M 1263.78 344.66 A 57.44 57.44 0 0 1  1321.22 287.22 L 1263.78 344.66 A 57.44 57.44 0 0 0 1321.22 287.22" fill="#9c0226"/><rect x="1321.22" y="287.22" width="57.44" height="57.44" fill="#0d1319"/><g transform="translate(1378.66,287.22) scale(2.872) rotate(0)"><path d="M13 0H20V7L7 20H0V13L13 0Z" fill="#810522"/></g><g transform="translate(1436.11,287.22) scale(2.872) rotate(0)"><rect width="2" height="20" fill="#870423"/><rect x="4" width="2" height="20" fill="#870423"/><rect x="8" width="2" height="20" fill="#870423"/><rect x="12" width="2" height="20" fill="#870423"/><rect x="16" width="2" height="20" fill="#870423"/></g><g transform="translate(1493.55,287.22) scale(2.872) rotate(0)"><rect width="2" height="20" fill="#310c15"/><rect x="4" width="2" height="20" fill="#310c15"/><rect x="8" width="2" height="20" fill="#310c15"/><rect x="12" width="2" height="20" fill="#310c15"/><rect x="16" width="2" height="20" fill="#310c15"/></g><rect x="1551" y="287.22" width="57.44" height="57.44" fill="#310c15"/><g transform="translate(1608.44,287.22) scale(2.872) rotate(0)"><path d="M13 0H20V7L7 20H0V13L13 0Z" fill="#970325"/></g><g transform="translate(1665.89,287.22) scale(2.872) rotate(0)"><rect width="2" height="20" fill="#0b1720"/><rect x="4" width="2" height="20" fill="#0b1720"/><rect x="8" width="2" height="20" fill="#0b1720"/><rect x="12" width="2" height="20" fill="#0b1720"/><rect x="16" width="2" height="20" fill="#0b1720"/></g></g></svg>